<mxfile host="app.diagrams.net" modified="2024-06-21T06:50:38.003Z" agent="Mozilla/5.0 (Windows NT 10.0; Win64; x64) AppleWebKit/537.36 (KHTML, like Gecko) Chrome/126.0.0.0 Safari/537.36 Edg/126.0.0.0" version="24.5.5" etag="NszISvgrbNMg3GHFYSI9" type="github">
  <diagram name="페이지-1" id="J2z9bpl3aSfDjdCMWxuG">
    <mxGraphModel>
      <root>
        <mxCell id="0" />
        <mxCell id="1" parent="0" />
      </root>
    </mxGraphModel>
  </diagram>
</mxfile>
